<svg width="23px" height="24px" viewBox="0 0 23 24" version="1.1" xmlns="http://www.w3.org/2000/svg" xmlns:xlink="http://www.w3.org/1999/xlink">
	<path d="M22.18,18.48 L15.88,12.18 C16.4195109,11.0636687 16.6998233,9.83986595 16.7,8.6 C16.7150697,4.87785899 14.2618032,1.5963215 10.6875105,0.557575819 C7.11321785,-0.481169865 3.28328212,0.974370217 1.30106657,4.1248277 C-0.681148977,7.27528517 -0.335723942,11.3578929 2.14763763,14.1305228 C4.6309992,16.9031526 8.65104287,17.6945144 12,16.07 L18.3,22.37 C18.7707295,22.8408154 19.4092272,23.105324 20.075,23.105324 C20.7407728,23.105324 21.3792705,22.8408154 21.85,22.37 L22.19,22.03 C22.6608154,21.5592705 22.925324,20.9207728 22.925324,20.255 C22.925324,19.5892272 22.6608154,18.9507295 22.19,18.48 M2.25,8.6 C2.25,5.20344879 5.00344879,2.45 8.4,2.45 C11.7965512,2.45 14.55,5.20344879 14.55,8.6 C14.55,11.9965512 11.7965512,14.75 8.4,14.75 C5.00573195,14.7444943 2.25550572,11.9942681 2.25,8.6" stroke="none" fill-rule="nonzero" fill="#bdbdba"></path>
</svg>